<svg width="48" height="64" viewBox="0 0 60 80" fill="none" xmlns="http://www.w3.org/2000/svg">
    <path d="M30 0C13.4 0 0 13.4 0 29.9C0 46.4 26 78.2 26 78.2C28.2 80.6 31.8 80.6 34 78.2C34 78.2 60 46.4 60 29.9C60 13.4 46.6 0 30 0Z" fill="#1A105A"/>
    <path fill-rule="evenodd" clip-rule="evenodd" d="M30 15.9375C30.1436 15.9374 30.2854 15.9703 30.4143 16.0337C30.5432 16.0971 30.6558 16.1893 30.7434 16.3031L40.1184 28.4906C40.2253 28.6294 40.2911 28.7954 40.3084 28.9697C40.3258 29.1439 40.294 29.3196 40.2166 29.4767C40.1392 29.6339 40.0193 29.7662 39.8706 29.8587C39.7218 29.9511 39.5501 30.0001 39.375 30H36.6047L41.9897 36.9244C42.0974 37.0629 42.1641 37.2289 42.1822 37.4034C42.2003 37.578 42.169 37.7541 42.092 37.9117C42.0149 38.0694 41.8951 38.2022 41.7463 38.2952C41.5974 38.3881 41.4255 38.4374 41.25 38.4375H18.75C18.5744 38.4376 18.4024 38.3884 18.2534 38.2956C18.1044 38.2027 17.9845 38.0698 17.9073 37.9122C17.8301 37.7545 17.7988 37.5783 17.8168 37.4036C17.8349 37.229 17.9016 37.0629 18.0094 36.9244L23.3962 30H20.625C20.4498 30.0001 20.2782 29.9511 20.1294 29.8587C19.9807 29.7662 19.8608 29.6339 19.7834 29.4767C19.706 29.3196 19.6742 29.1439 19.6915 28.9697C19.7089 28.7954 19.7747 28.6294 19.8816 28.4906L29.2566 16.3031C29.3442 16.1893 29.4568 16.0971 29.5857 16.0337C29.7146 15.9703 29.8563 15.9374 30 15.9375ZM22.5281 28.125H25.3125C25.4881 28.1249 25.6601 28.1741 25.8091 28.2669C25.9581 28.3598 26.078 28.4927 26.1552 28.6503C26.2324 28.808 26.2637 28.9842 26.2457 29.1589C26.2276 29.3335 26.1609 29.4996 26.0531 29.6381L20.6662 36.5625H39.3319L33.9469 29.6381C33.8391 29.4996 33.7724 29.3335 33.7543 29.1589C33.7363 28.9842 33.7676 28.808 33.8448 28.6503C33.922 28.4927 34.0419 28.3598 34.1909 28.2669C34.3399 28.1741 34.5119 28.1249 34.6875 28.125H37.4719L30 18.4125L22.5281 28.125Z" fill="white"/>
    <path fill-rule="evenodd" clip-rule="evenodd" d="M30 36.5625C30.2486 36.5625 30.4871 36.6613 30.6629 36.8371C30.8387 37.0129 30.9375 37.2514 30.9375 37.5V43.125C30.9375 43.3736 30.8387 43.6121 30.6629 43.7879C30.4871 43.9637 30.2486 44.0625 30 44.0625C29.7514 44.0625 29.5129 43.9637 29.3371 43.7879C29.1613 43.6121 29.0625 43.3736 29.0625 43.125V37.5C29.0625 37.2514 29.1613 37.0129 29.3371 36.8371C29.5129 36.6613 29.7514 36.5625 30 36.5625Z" fill="white"/>
    </svg>
    